<svg width="1440" height="366" viewBox="0 0 1440 366" fill="none" xmlns="http://www.w3.org/2000/svg">
<rect x="1481.82" y="1050" width="1537" height="934" transform="rotate(-180 1481.82 1050)" fill="#FFF6EE"/>
<path d="M-381.157 100.453C-387.363 100.359 -385.212 100.266 -387.807 100.35C-393.127 100.268 -393.741 197.051 -389.308 197.12C-380.827 198.614 -375.01 200.862 -367.143 197.464C-54.6637 62.5016 -69.6779 87.1158 -44.6383 188.005C-42.9111 190.996 -23.4116 191.674 -16.3014 190.67C41.6033 145.211 181.179 94.3466 211.665 187.159C219.126 192.096 237.767 190.899 237.767 190.899C460.9 116.345 563.282 93.3465 579.651 189.898C587.996 195.031 599.6 190.207 599.6 190.207C762.935 117.954 842.878 92.9907 887.993 178.734C899.47 182.061 906.611 179.022 906.611 179.022C1032.19 106.02 1064.92 120.487 1099 182.007C1103.81 186.714 1126.49 182.433 1126.49 182.433C1285.87 125.153 1325.04 130.114 1331.74 185.616C1345.37 192.686 1357.01 186.008 1357.01 186.008C1408.43 151.302 1440.19 138.732 1505.86 137.51C1505.86 137.51 1520.98 162.775 1530.57 173.495C1536.12 179.698 1561 176.139 1563.36 175.119C1591.44 162.971 1728.22 109.91 1745.85 130.48C1755.04 141.211 1752 162.469 1756.44 162.538C1760.87 162.607 1782.08 163.843 1786.14 162.999C1804 156.512 1813.21 152.476 1828.54 144.743C1834.33 132.243 1830.39 47.3741 1830.15 42.2808C1830.14 42.1544 1830.02 42.0751 1829.9 42.1113C1811.81 47.5285 1783.24 63.2007 1780.13 64.6295C1777 66.0644 1768.06 42.1914 1771.71 35.5725C1774.68 30.1859 1642.31 30.6006 1554.69 76.7064C1550.66 78.8234 1539.68 56.0769 1530.34 45.1774C1524.81 38.7098 1475.27 39.1333 1429.19 48.8113C1400.28 54.8848 1369.88 70.8731 1355.5 83.259C1351.31 67.2475 1344.87 53.4262 1332.53 48.7845C1287.02 38.0657 1180.08 43.4548 1119.18 81.8188C1102.81 51.155 1092.48 39.7302 1074.2 37.3606C970.208 23.8804 918.222 59.4192 906.045 72.581C897 55.3833 886.516 45.206 865.382 35.6069C799.986 20.871 680.139 29.0268 601.256 83.4293C598.771 57.4568 581.922 43.5171 570.897 39.5688C487.556 9.72061 320.703 46.8137 231.836 87.3415C221.398 74.1998 210.173 54.6067 192.531 48.5343C144.015 31.8351 61.2546 38.1945 -21.3695 88.6039C-26.7241 62.1912 -38.3164 14.7133 -53.847 9.85095C-137.246 -16.2595 -374.951 100.548 -381.157 100.453Z" fill="#FFF6EE" stroke="#FFF6EE" stroke-width="0.39057"/>
</svg>
