<svg width="1440" height="1120" viewBox="0 0 1440 1120" fill="none" xmlns="http://www.w3.org/2000/svg">
<rect y="-3" width="1440" height="1027" fill="#F4BE18"/>
<path d="M1820.98 1040C1827.18 1040.09 1825.03 1040.19 1827.63 1040.1C1832.94 1040.19 1833.56 943.402 1829.13 943.333C1820.65 941.839 1814.83 939.591 1806.96 942.989C1494.48 1077.95 1509.5 1053.34 1484.46 952.448C1482.73 949.457 1463.23 948.779 1456.12 949.784C1398.22 995.242 1258.64 1046.11 1228.15 953.294C1220.69 948.357 1202.05 949.554 1202.05 949.554C978.918 1024.11 876.537 1047.11 860.167 950.555C851.822 945.422 840.219 950.246 840.219 950.246C676.884 1022.5 596.94 1047.46 551.826 961.72C540.349 958.392 533.207 961.431 533.207 961.431C407.624 1034.43 374.895 1019.97 340.814 958.447C336.01 953.739 313.329 958.02 313.329 958.02C153.946 1015.3 114.778 1010.34 108.081 954.837C94.445 947.767 82.8127 954.445 82.8127 954.445C31.3905 989.152 -0.372005 1001.72 -66.037 1002.94C-66.037 1002.94 -81.1647 977.679 -90.7532 966.958C-96.3006 960.755 -121.183 964.315 -123.54 965.334C-151.62 977.483 -288.402 1030.54 -306.03 1009.97C-315.226 999.242 -312.185 977.984 -316.618 977.915C-321.051 977.847 -342.259 976.61 -346.319 977.455C-364.185 983.942 -373.394 987.977 -388.726 995.71C-394.511 1008.21 -390.573 1093.08 -390.33 1098.17C-390.324 1098.3 -390.206 1098.38 -390.085 1098.34C-371.99 1092.92 -343.42 1077.25 -340.307 1075.82C-337.181 1074.39 -328.24 1098.26 -331.89 1104.88C-334.86 1110.27 -202.493 1109.85 -114.868 1063.75C-110.845 1061.63 -99.8618 1084.38 -90.5264 1095.28C-84.987 1101.74 -35.4487 1101.32 10.6272 1091.64C39.5429 1085.57 69.9416 1069.58 84.3228 1057.19C88.5086 1073.21 94.9454 1087.03 107.289 1091.67C152.794 1102.39 259.739 1097 320.637 1058.63C337.011 1089.3 347.338 1100.72 365.618 1103.09C469.61 1116.57 521.597 1081.03 533.773 1067.87C542.818 1085.07 553.302 1095.25 574.437 1104.85C639.832 1119.58 759.679 1111.43 838.562 1057.02C841.047 1083 857.897 1096.94 868.921 1100.88C952.262 1130.73 1119.12 1093.64 1207.98 1053.11C1218.42 1066.25 1229.64 1085.85 1247.29 1091.92C1295.8 1108.62 1378.56 1102.26 1461.19 1051.85C1466.54 1078.26 1478.13 1125.74 1493.67 1130.6C1577.06 1156.71 1814.77 1039.91 1820.98 1040Z" fill="#F4BE18"/>
</svg>
