<svg width="1440" height="902" viewBox="0 0 1440 902" fill="none" xmlns="http://www.w3.org/2000/svg">
<path d="M-368.188 24.3459C-438.322 30.8603 -495 99.5527 -495 99.5527L-495 208L1583 208L1583 -1C1583 -1 1570.38 52.019 1525.36 62.1571C1466.48 75.4144 1460.12 2.40803 1397.1 5.2326C1339.7 7.80582 1344.47 57.0148 1287.58 62.1571C1217.88 68.458 1206.04 -0.842682 1136.27 5.2326C1074.3 10.6295 1084.91 67.5881 1022.43 70.4672C956.722 73.4953 955.575 13.1637 889.855 10.2187C821.536 7.15727 807.784 62.6675 739.265 62.1571C672.19 61.6573 660.08 10.2266 592.999 10.2187C520.727 10.2102 512.439 68.5074 440.247 70.4672C362.634 72.5741 347.205 1.69602 270.924 10.2187C209.386 17.0942 216.327 65.5748 155.64 74.6223C81.1623 85.7255 50.9929 30.3879 -25.9325 30.5785C-102.081 30.7673 -129.32 77.1465 -205.343 74.6223C-277.359 72.231 -296.97 17.731 -368.188 24.3459Z" fill="#1F4692"/>
<path d="M-378.188 35.3461C-448.322 41.8604 -505 110.553 -505 110.553L-505 219L1573 219L1573 10.0002C1573 10.0002 1560.38 63.0192 1515.36 73.1572C1456.48 86.4146 1450.12 13.4082 1387.1 16.2328C1329.7 18.806 1334.47 68.0149 1277.58 73.1572C1207.88 79.4582 1196.04 10.1575 1126.27 16.2328C1064.3 21.6297 1074.91 78.5883 1012.43 81.4674C946.722 84.4955 945.575 24.1639 879.855 21.2189C811.536 18.1575 797.784 73.6677 729.265 73.1572C662.19 72.6575 650.08 21.2268 582.999 21.2189C510.727 21.2104 502.439 79.5076 430.247 81.4674C352.634 83.5743 337.205 12.6962 260.924 21.2189C199.386 28.0944 206.327 76.575 145.64 85.6224C71.1623 96.7257 40.9929 41.388 -35.9325 41.5787C-112.081 41.7675 -139.32 88.1467 -215.343 85.6224C-287.359 83.2312 -306.97 28.7312 -378.188 35.3461Z" fill="#FFF6EE"/>
<rect x="1440" y="936" width="1440" height="791" transform="rotate(-180 1440 936)" fill="#FFF6EE"/>
</svg>
