<svg width="1440" height="468" viewBox="0 0 1440 468" fill="none" xmlns="http://www.w3.org/2000/svg">
<path d="M1808.19 443.654C1878.32 437.14 1935 368.447 1935 368.447L1935 260L-143 260L-143 469C-143 469 -130.38 415.981 -85.358 405.843C-26.484 392.585 -20.1179 465.592 42.8954 462.767C100.301 460.194 95.5309 410.985 152.415 405.843C222.117 399.542 233.964 468.843 303.725 462.767C365.698 457.37 355.093 400.412 417.568 397.533C483.278 394.505 484.425 454.836 550.145 457.781C618.464 460.843 632.216 405.332 700.735 405.843C767.81 406.343 779.92 457.773 847.001 457.781C919.273 457.79 927.561 399.493 999.753 397.533C1077.37 395.426 1092.8 466.304 1169.08 457.781C1230.61 450.906 1223.67 402.425 1284.36 393.378C1358.84 382.274 1389.01 437.612 1465.93 437.421C1542.08 437.233 1569.32 390.853 1645.34 393.378C1717.36 395.769 1736.97 450.269 1808.19 443.654Z" fill="#1F4692"/>
<path d="M1818.19 432.654C1888.32 426.14 1945 357.447 1945 357.447L1945 249L-133 249L-133 458C-133 458 -120.38 404.981 -75.358 394.843C-16.484 381.585 -10.1179 454.592 52.8954 451.767C110.301 449.194 105.531 399.985 162.415 394.843C232.117 388.542 243.964 457.842 313.725 451.767C375.698 446.37 365.093 389.412 427.568 386.533C493.278 383.504 494.425 443.836 560.145 446.781C628.464 449.842 642.216 394.332 710.735 394.843C777.81 395.342 789.92 446.773 857.001 446.781C929.273 446.79 937.561 388.492 1009.75 386.533C1087.37 384.426 1102.8 455.304 1179.08 446.781C1240.61 439.906 1233.67 391.425 1294.36 382.378C1368.84 371.274 1399.01 426.612 1475.93 426.421C1552.08 426.233 1579.32 379.853 1655.34 382.378C1727.36 384.769 1746.97 439.269 1818.19 432.654Z" fill="#D55F4A"/>
<rect y="-468" width="1440" height="791" fill="#D55F4A"/>
</svg>
