<svg width="1440" height="115" viewBox="0 0 1440 115" fill="none" xmlns="http://www.w3.org/2000/svg">
<path d="M-380.976 100.453C-387.182 100.359 -385.031 100.266 -387.625 100.35C-392.945 100.268 -393.559 197.051 -389.126 197.12C-380.646 198.614 -374.828 200.862 -366.961 197.464C-54.482 62.5016 -69.4963 87.1158 -44.4566 188.005C-42.7294 190.996 -23.23 191.674 -16.1198 190.67C41.7849 145.211 181.361 94.3466 211.846 187.159C219.308 192.096 237.949 190.899 237.949 190.899C461.082 116.345 563.463 93.3465 579.833 189.898C588.178 195.031 599.781 190.207 599.781 190.207C763.116 117.954 843.06 92.9907 888.174 178.734C899.651 182.061 906.793 179.022 906.793 179.022C1032.38 106.02 1065.1 120.487 1099.19 182.007C1103.99 186.714 1126.67 182.433 1126.67 182.433C1286.05 125.153 1325.22 130.114 1331.92 185.616C1345.55 192.686 1357.19 186.008 1357.19 186.008C1408.61 151.302 1440.37 138.732 1506.04 137.51C1506.04 137.51 1521.16 162.775 1530.75 173.495C1536.3 179.698 1561.18 176.139 1563.54 175.119C1591.62 162.971 1728.4 109.91 1746.03 130.48C1755.23 141.211 1752.18 162.469 1756.62 162.538C1761.05 162.607 1782.26 163.843 1786.32 162.999C1804.19 156.512 1813.39 152.476 1828.73 144.743C1834.51 132.243 1830.57 47.3741 1830.33 42.2808C1830.32 42.1544 1830.21 42.0751 1830.08 42.1113C1811.99 47.5285 1783.42 63.2007 1780.31 64.6295C1777.18 66.0644 1768.24 42.1914 1771.89 35.5725C1774.86 30.1859 1642.49 30.6006 1554.87 76.7064C1550.84 78.8234 1539.86 56.0769 1530.53 45.1774C1524.99 38.7098 1475.45 39.1333 1429.37 48.8113C1400.46 54.8848 1370.06 70.8731 1355.68 83.259C1351.49 67.2475 1345.05 53.4262 1332.71 48.7845C1287.21 38.0657 1180.26 43.4548 1119.36 81.8188C1102.99 51.155 1092.66 39.7302 1074.38 37.3606C970.39 23.8804 918.403 59.4192 906.227 72.581C897.182 55.3833 886.698 45.206 865.563 35.6069C800.168 20.871 680.321 29.0268 601.437 83.4293C598.953 57.4568 582.103 43.5171 571.079 39.5688C487.738 9.72061 320.885 46.8137 232.018 87.3415C221.58 74.1998 210.355 54.6067 192.713 48.5343C144.197 31.8351 61.4363 38.1945 -21.1878 88.6039C-26.5425 62.1912 -38.1347 14.7133 -53.6653 9.85095C-137.065 -16.2595 -374.769 100.548 -380.976 100.453Z" fill="#FFF6EE" stroke="#FFF6EE" stroke-width="0.39057"/>
</svg>
