<svg width="17" height="18" viewBox="0 0 17 18" fill="none" xmlns="http://www.w3.org/2000/svg">
<path d="M14.1887 7.14798L8.87615 12.773C8.82682 12.8253 8.76823 12.8668 8.70373 12.8951C8.63924 12.9234 8.57011 12.938 8.5003 12.938C8.43048 12.938 8.36135 12.9234 8.29686 12.8951C8.23237 12.8668 8.17377 12.8253 8.12444 12.773L2.81194 7.14798C2.71225 7.04243 2.65625 6.89927 2.65625 6.75001C2.65625 6.60074 2.71225 6.45759 2.81194 6.35204C2.91162 6.24649 3.04682 6.18719 3.1878 6.18719C3.32877 6.18719 3.46397 6.24649 3.56365 6.35204L8.5003 11.5798L13.4369 6.35204C13.4863 6.29978 13.5449 6.25832 13.6094 6.23004C13.6739 6.20175 13.743 6.18719 13.8128 6.18719C13.8826 6.18719 13.9517 6.20175 14.0162 6.23004C14.0807 6.25832 14.1393 6.29978 14.1887 6.35204C14.238 6.4043 14.2772 6.46634 14.3039 6.53463C14.3306 6.60291 14.3443 6.6761 14.3443 6.75001C14.3443 6.82392 14.3306 6.8971 14.3039 6.96539C14.2772 7.03367 14.238 7.09571 14.1887 7.14798Z" fill="#1F4692"/>
</svg>
