<svg width="20" height="20" viewBox="0 0 20 20" fill="none" xmlns="http://www.w3.org/2000/svg">
<path d="M17.63 5.44254L7.63004 15.4425C7.57199 15.5006 7.50306 15.5467 7.42719 15.5782C7.35131 15.6096 7.26998 15.6258 7.18785 15.6258C7.10571 15.6258 7.02438 15.6096 6.94851 15.5782C6.87264 15.5467 6.80371 15.5006 6.74566 15.4425L2.37066 11.0675C2.25338 10.9503 2.1875 10.7912 2.1875 10.6253C2.1875 10.4595 2.25338 10.3004 2.37066 10.1832C2.48794 10.0659 2.647 10 2.81285 10C2.9787 10 3.13776 10.0659 3.25503 10.1832L7.18785 14.1168L16.7457 4.55816C16.8629 4.44088 17.022 4.375 17.1878 4.375C17.3537 4.375 17.5128 4.44088 17.63 4.55816C17.7473 4.67544 17.8132 4.83449 17.8132 5.00035C17.8132 5.1662 17.7473 5.32526 17.63 5.44254Z" fill="#1F4692"/>
</svg>
