<svg width="241" height="240" viewBox="0 0 241 240" fill="none" xmlns="http://www.w3.org/2000/svg">
<path d="M205.352 126.817C203.603 123.164 201.789 119.396 201.577 116.537C201.374 113.914 202.571 110.07 203.728 106.346C205.88 99.4223 208.325 91.5789 204.676 84.3725C201.027 77.1662 193.257 74.4953 186.403 72.1321C182.716 70.8613 178.909 69.5513 176.915 67.8351C174.736 65.9718 172.772 62.2801 170.863 58.7079C167.519 52.4301 163.73 45.3185 156.361 42.9038C148.992 40.4892 141.728 43.979 135.318 47.0604C131.665 48.8101 127.897 50.6238 125.037 50.8357C122.429 51.0439 118.571 49.8422 114.847 48.6844C107.923 46.533 100.08 44.0879 92.8735 47.7371C85.6671 51.3863 83.0315 59.1673 80.633 66.0098C79.3622 69.6969 78.0522 73.504 76.336 75.4974C74.4728 77.6772 70.781 79.6409 67.2088 81.5499C60.9334 84.8866 53.8194 88.6833 51.4048 96.0521C48.9901 103.421 52.4799 110.684 55.5613 117.095C57.311 120.748 59.1247 124.516 59.3366 127.375C59.5402 129.998 58.3431 133.842 57.1853 137.566C55.0339 144.49 52.5888 152.333 56.238 159.539C59.8872 166.746 67.6566 169.417 74.5107 171.78C78.1978 173.051 82.0049 174.361 83.9984 176.077C86.1711 177.938 88.1418 181.632 90.0508 185.204C93.3946 191.482 97.1843 198.593 104.553 201.008C111.922 203.423 119.185 199.933 125.596 196.852C129.249 195.102 133.017 193.288 135.876 193.076C138.499 192.873 142.343 194.07 146.067 195.227C152.991 197.379 160.834 199.824 168.04 196.175C175.247 192.526 177.918 184.756 180.281 177.902C181.552 174.215 182.862 170.408 184.578 168.415C186.439 166.242 190.133 164.271 193.705 162.362C199.98 159.025 207.094 155.229 209.509 147.86C211.924 140.491 208.434 133.227 205.352 126.817ZM188.113 151.877C188.104 151.882 188.094 151.887 188.085 151.892C183.556 154.309 178.872 156.808 175.554 160.674C172.365 164.397 170.675 169.291 169.043 174.032C167.354 178.95 165.581 184.098 162.669 185.567C159.756 187.036 154.59 185.436 149.598 183.879C144.811 182.388 139.866 180.854 134.977 181.222C129.898 181.609 125.111 183.905 120.482 186.125C120.473 186.13 120.463 186.134 120.454 186.139C120.448 186.142 120.443 186.144 120.437 186.147C115.806 188.369 111.073 190.639 108.254 189.715C105.43 188.79 102.94 184.128 100.536 179.612C98.1309 175.096 95.6124 170.378 91.7387 167.053C88.016 163.864 83.1219 162.174 78.3807 160.542C73.4631 158.853 68.3148 157.08 66.8461 154.168C65.3773 151.256 66.9764 146.089 68.534 141.097C70.0246 136.31 71.559 131.365 71.1912 126.476C70.8043 121.397 68.5079 116.61 66.2876 111.982C66.2831 111.972 66.2785 111.963 66.2739 111.953C66.2712 111.947 66.2686 111.942 66.2659 111.936C64.044 107.305 61.7739 102.573 62.6979 99.7527C63.623 96.9294 68.2845 94.4394 72.8008 92.0347C77.317 89.63 82.0347 87.1115 85.3597 83.2378C88.5492 79.5151 90.2389 74.621 91.8706 69.8798C93.5602 64.9622 95.3331 59.8139 98.2452 58.3452C101.157 56.8764 106.323 58.4755 111.316 60.0331C116.103 61.5237 121.048 63.0581 125.936 62.6903C131.016 62.3034 135.803 60.007 140.431 57.7868C140.441 57.7822 140.45 57.7776 140.46 57.773C140.465 57.7703 140.471 57.7677 140.477 57.765C145.108 55.5431 149.84 53.273 152.66 54.197C155.483 55.1221 157.973 59.7836 160.378 64.2999C162.783 68.8161 165.301 73.5338 169.175 76.8588C172.898 80.0483 177.792 81.738 182.533 83.3697C187.451 85.0593 192.599 86.8322 194.068 89.7443C195.536 92.6564 193.937 97.8226 192.38 102.815C190.889 107.602 189.355 112.547 189.723 117.435C190.109 122.515 192.406 127.302 194.626 131.93C194.631 131.94 194.635 131.949 194.64 131.959C194.643 131.965 194.645 131.97 194.648 131.976C196.87 136.607 199.14 141.339 198.216 144.159C197.291 146.983 192.629 149.473 188.113 151.877Z" fill="#1F4692"/>
<path d="M188.113 151.877L188.085 151.892C183.556 154.309 178.872 156.808 175.554 160.674C172.365 164.397 170.675 169.291 169.043 174.032C167.354 178.95 165.581 184.098 162.669 185.567C159.756 187.036 154.59 185.436 149.598 183.879C144.811 182.388 139.866 180.854 134.977 181.222C129.898 181.609 125.111 183.905 120.482 186.125L120.454 186.139L120.437 186.147C115.806 188.369 111.073 190.639 108.254 189.715C105.43 188.79 102.94 184.128 100.536 179.612C98.1309 175.096 95.6124 170.378 91.7387 167.053C88.016 163.864 83.1219 162.174 78.3807 160.542C73.4631 158.853 68.3148 157.08 66.8461 154.168C65.3773 151.256 66.9764 146.089 68.534 141.097C70.0246 136.31 71.559 131.365 71.1912 126.476C70.8043 121.397 68.5079 116.61 66.2876 111.982L66.2739 111.953L66.2659 111.936C64.044 107.305 61.7739 102.573 62.6979 99.7527C63.623 96.9294 68.2845 94.4394 72.8008 92.0347C77.317 89.63 82.0347 87.1115 85.3597 83.2378C88.5492 79.5151 90.2389 74.621 91.8706 69.8798C93.5602 64.9622 95.3331 59.8139 98.2452 58.3452C101.157 56.8764 106.323 58.4755 111.316 60.0331C116.103 61.5237 121.048 63.0581 125.936 62.6903C131.016 62.3034 135.803 60.007 140.431 57.7868L140.46 57.773L140.477 57.765C145.108 55.5431 149.84 53.273 152.66 54.197C155.483 55.1221 157.973 59.7836 160.378 64.2999C162.783 68.8161 165.301 73.5338 169.175 76.8588C172.898 80.0483 177.792 81.738 182.533 83.3697C187.451 85.0593 192.599 86.8322 194.068 89.7443C195.536 92.6564 193.937 97.8226 192.38 102.815C190.889 107.602 189.355 112.547 189.723 117.435C190.109 122.515 192.406 127.302 194.626 131.93L194.64 131.959L194.648 131.976C196.87 136.607 199.14 141.339 198.216 144.159C197.291 146.983 192.629 149.473 188.113 151.877Z" fill="#1F4692"/>
<path d="M195.352 124.817C193.603 121.164 191.789 117.396 191.577 114.537C191.374 111.914 192.571 108.07 193.728 104.346C195.88 97.4223 198.325 89.5789 194.676 82.3725C191.027 75.1662 183.257 72.4953 176.403 70.1321C172.716 68.8613 168.909 67.5513 166.915 65.8351C164.736 63.9718 162.772 60.2801 160.863 56.7079C157.519 50.4301 153.73 43.3185 146.361 40.9038C138.992 38.4892 131.728 41.979 125.318 45.0604C121.665 46.8101 117.897 48.6238 115.037 48.8357C112.429 49.0439 108.571 47.8422 104.847 46.6844C97.9232 44.533 90.0798 42.0879 82.8735 45.7371C75.6671 49.3863 73.0315 57.1673 70.633 64.0098C69.3622 67.6969 68.0522 71.504 66.336 73.4974C64.4728 75.6772 60.781 77.6409 57.2088 79.5499C50.9334 82.8866 43.8194 86.6833 41.4048 94.0521C38.9901 101.421 42.4799 108.684 45.5613 115.095C47.311 118.748 49.1247 122.516 49.3366 125.375C49.5402 127.998 48.3431 131.842 47.1853 135.566C45.0339 142.49 42.5888 150.333 46.238 157.539C49.8872 164.746 57.6566 167.417 64.5107 169.78C68.1978 171.051 72.0049 172.361 73.9984 174.077C76.1711 175.938 78.1418 179.632 80.0508 183.204C83.3946 189.482 87.1843 196.593 94.553 199.008C101.922 201.423 109.185 197.933 115.596 194.852C119.249 193.102 123.017 191.288 125.876 191.076C128.499 190.873 132.343 192.07 136.067 193.227C142.991 195.379 150.834 197.824 158.04 194.175C165.247 190.526 167.918 182.756 170.281 175.902C171.552 172.215 172.862 168.408 174.578 166.415C176.439 164.242 180.133 162.271 183.705 160.362C189.98 157.025 197.094 153.229 199.509 145.86C201.924 138.491 198.434 131.227 195.352 124.817ZM178.113 149.877C178.104 149.882 178.094 149.887 178.085 149.892C173.556 152.309 168.872 154.808 165.554 158.674C162.365 162.397 160.675 167.291 159.043 172.032C157.354 176.95 155.581 182.098 152.669 183.567C149.756 185.036 144.59 183.436 139.598 181.879C134.811 180.388 129.866 178.854 124.977 179.222C119.898 179.609 115.111 181.905 110.482 184.125C110.473 184.13 110.463 184.134 110.454 184.139C110.448 184.142 110.443 184.144 110.437 184.147C105.806 186.369 101.073 188.639 98.2536 187.715C95.4303 186.79 92.9403 182.128 90.5356 177.612C88.1309 173.096 85.6124 168.378 81.7387 165.053C78.016 161.864 73.1219 160.174 68.3807 158.542C63.4631 156.853 58.3148 155.08 56.8461 152.168C55.3773 149.256 56.9764 144.089 58.534 139.097C60.0246 134.31 61.559 129.365 61.1912 124.476C60.8043 119.397 58.5079 114.61 56.2876 109.982C56.2831 109.972 56.2785 109.963 56.2739 109.953C56.2712 109.947 56.2686 109.942 56.2659 109.936C54.044 105.305 51.7739 100.573 52.6979 97.7527C53.623 94.9294 58.2845 92.4394 62.8008 90.0347C67.317 87.63 72.0347 85.1115 75.3597 81.2378C78.5492 77.5151 80.2389 72.621 81.8706 67.8798C83.5602 62.9622 85.3331 57.8139 88.2452 56.3452C91.1573 54.8764 96.3235 56.4755 101.316 58.0331C106.103 59.5237 111.048 61.0581 115.936 60.6903C121.016 60.3034 125.803 58.007 130.431 55.7868C130.441 55.7822 130.45 55.7776 130.46 55.773C130.465 55.7703 130.471 55.7677 130.477 55.765C135.108 53.5431 139.84 51.273 142.66 52.197C145.483 53.1221 147.973 57.7836 150.378 62.2999C152.783 66.8161 155.301 71.5338 159.175 74.8588C162.898 78.0483 167.792 79.738 172.533 81.3697C177.451 83.0593 182.599 84.8322 184.068 87.7443C185.536 90.6564 183.937 95.8226 182.38 100.815C180.889 105.602 179.355 110.547 179.723 115.435C180.109 120.515 182.406 125.302 184.626 129.93C184.631 129.94 184.635 129.949 184.64 129.959C184.643 129.965 184.645 129.97 184.648 129.976C186.87 134.607 189.14 139.339 188.216 142.159C187.291 144.983 182.629 147.473 178.113 149.877Z" fill="#D55F4A"/>
<path d="M178.113 149.877L178.085 149.892C173.556 152.309 168.872 154.808 165.554 158.674C162.365 162.397 160.675 167.291 159.043 172.032C157.354 176.95 155.581 182.098 152.669 183.567C149.756 185.036 144.59 183.436 139.598 181.879C134.811 180.388 129.866 178.854 124.977 179.222C119.898 179.609 115.111 181.905 110.482 184.125L110.454 184.139L110.437 184.147C105.806 186.369 101.073 188.639 98.2536 187.715C95.4303 186.79 92.9403 182.128 90.5356 177.612C88.1309 173.096 85.6124 168.378 81.7387 165.053C78.016 161.864 73.1219 160.174 68.3807 158.542C63.4631 156.853 58.3148 155.08 56.8461 152.168C55.3773 149.256 56.9764 144.089 58.534 139.097C60.0246 134.31 61.559 129.365 61.1912 124.476C60.8043 119.397 58.5079 114.61 56.2876 109.982L56.2739 109.953L56.2659 109.936C54.044 105.305 51.7739 100.573 52.6979 97.7527C53.623 94.9294 58.2845 92.4394 62.8008 90.0347C67.317 87.63 72.0347 85.1115 75.3597 81.2378C78.5492 77.5151 80.2389 72.621 81.8706 67.8798C83.5602 62.9622 85.3331 57.8139 88.2452 56.3452C91.1573 54.8764 96.3235 56.4755 101.316 58.0331C106.103 59.5237 111.048 61.0581 115.936 60.6903C121.016 60.3034 125.803 58.007 130.431 55.7868L130.46 55.773L130.477 55.765C135.108 53.5431 139.84 51.273 142.66 52.197C145.483 53.1221 147.973 57.7836 150.378 62.2999C152.783 66.8161 155.301 71.5338 159.175 74.8588C162.898 78.0483 167.792 79.738 172.533 81.3697C177.451 83.0593 182.599 84.8322 184.068 87.7443C185.536 90.6564 183.937 95.8226 182.38 100.815C180.889 105.602 179.355 110.547 179.723 115.435C180.109 120.515 182.406 125.302 184.626 129.93L184.64 129.959L184.648 129.976C186.87 134.607 189.14 139.339 188.216 142.159C187.291 144.983 182.629 147.473 178.113 149.877Z" fill="#D55F4A"/>
</svg>
