<svg width="61" height="60" viewBox="0 0 61 60" fill="none" xmlns="http://www.w3.org/2000/svg">
<path d="M48.8885 30.8808C48.4556 29.9771 48.0068 29.0449 47.9544 28.3374C47.904 27.6885 48.2002 26.7375 48.4867 25.8161C49.019 24.1031 49.6239 22.1626 48.721 20.3797C47.8182 18.5967 45.896 17.9359 44.2002 17.3512C43.2879 17.0368 42.346 16.7127 41.8528 16.2881C41.3135 15.8271 40.8277 14.9137 40.3554 14.0299C39.5281 12.4767 38.5905 10.7172 36.7674 10.1198C34.9442 9.52244 33.1472 10.3858 31.5611 11.1482C30.6573 11.5811 29.7252 12.0298 29.0176 12.0823C28.3723 12.1338 27.4177 11.8365 26.4963 11.55C24.7834 11.0177 22.8428 10.4128 21.0599 11.3156C19.277 12.2185 18.6249 14.1436 18.0315 15.8365C17.7171 16.7487 17.393 17.6906 16.9684 18.1839C16.5074 18.7232 15.594 19.209 14.7102 19.6813C13.1576 20.5068 11.3975 21.4462 10.8001 23.2693C10.2027 25.0924 11.0661 26.8895 11.8285 28.4756C12.2614 29.3793 12.7101 30.3115 12.7625 31.019C12.8129 31.6679 12.5167 32.619 12.2303 33.5403C11.698 35.2533 11.093 37.1938 11.9959 38.9768C12.8987 40.7597 14.821 41.4205 16.5168 42.0052C17.429 42.3196 18.3709 42.6437 18.8641 43.0683C19.4017 43.5287 19.8892 44.4427 20.3615 45.3265C21.1888 46.8797 22.1264 48.6392 23.9496 49.2366C25.7727 49.834 27.5698 48.9706 29.1558 48.2082C30.0596 47.7753 30.9918 47.3266 31.6993 47.2742C32.3481 47.2238 33.2992 47.52 34.2206 47.8064C35.9335 48.3387 37.8741 48.9436 39.657 48.0408C41.44 47.1379 42.1008 45.2157 42.6855 43.5199C42.9998 42.6077 43.324 41.6658 43.7486 41.1726C44.209 40.635 45.1229 40.1474 46.0067 39.6751C47.5594 38.8496 49.3194 37.9102 49.9168 36.0871C50.5142 34.264 49.6508 32.4669 48.8885 30.8808ZM44.6232 37.0811C44.6209 37.0823 44.6186 37.0835 44.6163 37.0848C43.4959 37.6827 42.337 38.3011 41.516 39.2575C40.7269 40.1786 40.3089 41.3894 39.9051 42.5624C39.4871 43.7791 39.0485 45.0529 38.328 45.4162C37.6075 45.7796 36.3293 45.384 35.0942 44.9986C33.9098 44.6298 32.6863 44.2502 31.4769 44.3412C30.2201 44.4369 29.0357 45.0051 27.8907 45.5544C27.8883 45.5555 27.886 45.5567 27.8836 45.5578C27.8822 45.5585 27.8809 45.5591 27.8795 45.5598C26.7336 46.1095 25.5628 46.6712 24.8651 46.4425C24.1666 46.2136 23.5506 45.0604 22.9556 43.943C22.3606 42.8256 21.7375 41.6584 20.7792 40.8358C19.8581 40.0466 18.6473 39.6286 17.4742 39.2249C16.2576 38.8069 14.9838 38.3682 14.6204 37.6477C14.2571 36.9273 14.6527 35.6491 15.0381 34.414C15.4068 33.2295 15.7865 32.0061 15.6955 30.7966C15.5998 29.5398 15.0316 28.3555 14.4823 27.2104C14.4811 27.2081 14.48 27.2057 14.4789 27.2034C14.4782 27.202 14.4776 27.2006 14.4769 27.1992C13.9272 26.0533 13.3655 24.8825 13.5941 24.1849C13.823 23.4864 14.9763 22.8703 16.0937 22.2754C17.2111 21.6804 18.3783 21.0573 19.2009 20.0989C19.99 19.1779 20.4081 17.967 20.8118 16.794C21.2298 15.5773 21.6685 14.3036 22.3889 13.9402C23.1094 13.5768 24.3876 13.9724 25.6227 14.3578C26.8072 14.7266 28.0306 15.1062 29.24 15.0152C30.4968 14.9195 31.6812 14.3513 32.8262 13.802C32.8286 13.8009 32.831 13.7998 32.8333 13.7986C32.8347 13.798 32.8361 13.7973 32.8375 13.7966C33.9834 13.2469 35.1541 12.6853 35.8518 12.9139C36.5503 13.1428 37.1664 14.2961 37.7613 15.4134C38.3563 16.5308 38.9794 17.698 39.9378 18.5207C40.8588 19.3098 42.0697 19.7278 43.2427 20.1315C44.4594 20.5496 45.7331 20.9882 46.0965 21.7087C46.4599 22.4292 46.0643 23.7073 45.6789 24.9424C45.3101 26.1269 44.9304 27.3504 45.0215 28.5598C45.1172 29.8166 45.6853 31.0009 46.2347 32.146C46.2358 32.1483 46.2369 32.1507 46.238 32.1531C46.2387 32.1544 46.2394 32.1558 46.24 32.1572C46.7898 33.3031 47.3514 34.4739 47.1228 35.1716C46.8939 35.8701 45.7406 36.4861 44.6232 37.0811Z" fill="#1F4692"/>
<path d="M44.6232 37.0811L44.6163 37.0848C43.4959 37.6827 42.337 38.3011 41.516 39.2575C40.7269 40.1786 40.3089 41.3894 39.9051 42.5624C39.4871 43.7791 39.0485 45.0529 38.328 45.4162C37.6075 45.7796 36.3293 45.384 35.0942 44.9986C33.9098 44.6298 32.6863 44.2502 31.4769 44.3412C30.2201 44.4369 29.0357 45.0051 27.8907 45.5544L27.8836 45.5578L27.8795 45.5598C26.7336 46.1095 25.5628 46.6712 24.8651 46.4425C24.1666 46.2136 23.5506 45.0604 22.9556 43.943C22.3606 42.8256 21.7375 41.6584 20.7792 40.8358C19.8581 40.0466 18.6473 39.6286 17.4742 39.2249C16.2576 38.8069 14.9838 38.3682 14.6204 37.6477C14.2571 36.9273 14.6527 35.6491 15.0381 34.414C15.4068 33.2295 15.7865 32.0061 15.6955 30.7966C15.5998 29.5398 15.0316 28.3555 14.4823 27.2104L14.4789 27.2034L14.4769 27.1992C13.9272 26.0533 13.3655 24.8825 13.5941 24.1849C13.823 23.4864 14.9763 22.8703 16.0937 22.2754C17.2111 21.6804 18.3783 21.0573 19.2009 20.0989C19.99 19.1779 20.4081 17.967 20.8118 16.794C21.2298 15.5773 21.6685 14.3036 22.3889 13.9402C23.1094 13.5768 24.3876 13.9724 25.6227 14.3578C26.8072 14.7266 28.0306 15.1062 29.24 15.0152C30.4968 14.9195 31.6812 14.3513 32.8262 13.802L32.8333 13.7986L32.8375 13.7966C33.9834 13.2469 35.1541 12.6853 35.8518 12.9139C36.5503 13.1428 37.1664 14.2961 37.7613 15.4134C38.3563 16.5308 38.9794 17.698 39.9378 18.5207C40.8588 19.3098 42.0697 19.7278 43.2427 20.1315C44.4594 20.5496 45.7331 20.9882 46.0965 21.7087C46.4599 22.4292 46.0643 23.7073 45.6789 24.9424C45.3101 26.1269 44.9304 27.3504 45.0215 28.5598C45.1172 29.8166 45.6853 31.0009 46.2347 32.146L46.238 32.1531L46.24 32.1572C46.7898 33.3031 47.3514 34.4739 47.1228 35.1716C46.8939 35.8701 45.7406 36.4861 44.6232 37.0811Z" fill="#1F4692"/>
</svg>
