<svg width="240" height="240" viewBox="0 0 240 240" fill="none" xmlns="http://www.w3.org/2000/svg">
<path d="M204.854 126.817C203.105 123.164 201.291 119.396 201.079 116.537C200.876 113.914 202.073 110.07 203.23 106.346C205.382 99.4223 207.827 91.5789 204.178 84.3725C200.529 77.1662 192.759 74.4953 185.905 72.1321C182.218 70.8613 178.411 69.5513 176.417 67.8351C174.238 65.9718 172.274 62.2801 170.365 58.7079C167.021 52.4301 163.231 45.3185 155.863 42.9038C148.494 40.4892 141.23 43.979 134.82 47.0604C131.167 48.8101 127.399 50.6238 124.539 50.8357C121.931 51.0439 118.073 49.8422 114.349 48.6844C107.425 46.533 99.5818 44.0879 92.3754 47.7371C85.1691 51.3863 82.5334 59.1673 80.1349 66.0098C78.8642 69.6969 77.5542 73.504 75.838 75.4974C73.9747 77.6772 70.283 79.6409 66.7108 81.5499C60.4353 84.8866 53.3213 88.6833 50.9067 96.0521C48.4921 103.421 51.9819 110.684 55.0633 117.095C56.813 120.748 58.6267 124.516 58.8386 127.375C59.0422 129.998 57.8451 133.842 56.6873 137.566C54.5358 144.49 52.0908 152.333 55.74 159.539C59.3892 166.746 67.1586 169.417 74.0127 171.78C77.6998 173.051 81.5068 174.361 83.5003 176.077C85.6731 177.938 87.6437 181.632 89.5527 185.204C92.8966 191.482 96.6862 198.593 104.055 201.008C111.424 203.423 118.687 199.933 125.098 196.852C128.751 195.102 132.519 193.288 135.378 193.076C138.001 192.873 141.845 194.07 145.569 195.227C152.493 197.379 160.336 199.824 167.542 196.175C174.749 192.526 177.42 184.756 179.783 177.902C181.053 174.215 182.364 170.408 184.08 168.415C185.941 166.242 189.635 164.271 193.207 162.362C199.482 159.025 206.596 155.229 209.011 147.86C211.426 140.491 207.936 133.227 204.854 126.817ZM187.615 151.877C187.606 151.882 187.596 151.887 187.587 151.892C183.058 154.309 178.374 156.808 175.056 160.674C171.867 164.397 170.177 169.291 168.545 174.032C166.856 178.95 165.083 184.098 162.17 185.567C159.258 187.036 154.092 185.436 149.1 183.879C144.313 182.388 139.368 180.854 134.479 181.222C129.4 181.609 124.613 183.905 119.984 186.125C119.975 186.13 119.965 186.134 119.956 186.139C119.95 186.142 119.945 186.144 119.939 186.147C115.307 188.369 110.575 190.639 107.756 189.715C104.932 188.79 102.442 184.128 100.038 179.612C97.6328 175.096 95.1143 170.378 91.2406 167.053C87.518 163.864 82.6238 162.174 77.8826 160.542C72.965 158.853 67.8168 157.08 66.348 154.168C64.8793 151.256 66.4783 146.089 68.036 141.097C69.5266 136.31 71.061 131.365 70.6931 126.476C70.3063 121.397 68.0098 116.61 65.7896 111.982C65.785 111.972 65.7804 111.963 65.7759 111.953C65.7732 111.947 65.7705 111.942 65.7678 111.936C63.5459 107.305 61.2758 102.573 62.1999 99.7527C63.125 96.9294 67.7864 94.4394 72.3027 92.0347C76.819 89.63 81.5366 87.1115 84.8616 83.2378C88.0511 79.5151 89.7408 74.621 91.3726 69.8798C93.0621 64.9622 94.8351 59.8139 97.7472 58.3452C100.659 56.8764 105.825 58.4755 110.818 60.0331C115.605 61.5237 120.55 63.0581 125.438 62.6903C130.518 62.3034 135.305 60.007 139.933 57.7868C139.943 57.7822 139.952 57.7776 139.962 57.773C139.967 57.7703 139.973 57.7677 139.979 57.765C144.61 55.5431 149.342 53.273 152.162 54.197C154.985 55.1221 157.475 59.7836 159.88 64.2999C162.285 68.8161 164.803 73.5338 168.677 76.8588C172.4 80.0483 177.294 81.738 182.035 83.3697C186.953 85.0593 192.101 86.8322 193.57 89.7443C195.038 92.6564 193.439 97.8226 191.882 102.815C190.391 107.602 188.857 112.547 189.225 117.435C189.611 122.515 191.908 127.302 194.128 131.93C194.133 131.94 194.137 131.949 194.142 131.959C194.144 131.965 194.147 131.97 194.15 131.976C196.372 136.607 198.642 141.339 197.718 144.159C196.793 146.983 192.131 149.473 187.615 151.877Z" fill="#C05643"/>
<path d="M187.615 151.877L187.587 151.892C183.058 154.309 178.374 156.808 175.056 160.674C171.867 164.397 170.177 169.291 168.545 174.032C166.856 178.95 165.083 184.098 162.17 185.567C159.258 187.036 154.092 185.436 149.1 183.879C144.313 182.388 139.368 180.854 134.479 181.222C129.4 181.609 124.613 183.905 119.984 186.125L119.956 186.139L119.939 186.147C115.307 188.369 110.575 190.639 107.756 189.715C104.932 188.79 102.442 184.128 100.038 179.612C97.6328 175.096 95.1143 170.378 91.2406 167.053C87.518 163.864 82.6238 162.174 77.8826 160.542C72.965 158.853 67.8168 157.08 66.348 154.168C64.8793 151.256 66.4783 146.089 68.036 141.097C69.5266 136.31 71.061 131.365 70.6931 126.476C70.3063 121.397 68.0098 116.61 65.7896 111.982L65.7759 111.953L65.7678 111.936C63.5459 107.305 61.2758 102.573 62.1999 99.7527C63.125 96.9294 67.7864 94.4394 72.3027 92.0347C76.819 89.63 81.5366 87.1115 84.8616 83.2378C88.0511 79.5151 89.7408 74.621 91.3726 69.8798C93.0621 64.9622 94.8351 59.8139 97.7472 58.3452C100.659 56.8764 105.825 58.4755 110.818 60.0331C115.605 61.5237 120.55 63.0581 125.438 62.6903C130.518 62.3034 135.305 60.007 139.933 57.7868L139.962 57.773L139.979 57.765C144.61 55.5431 149.342 53.273 152.162 54.197C154.985 55.1221 157.475 59.7836 159.88 64.2999C162.285 68.8161 164.803 73.5338 168.677 76.8588C172.4 80.0483 177.294 81.738 182.035 83.3697C186.953 85.0593 192.101 86.8322 193.57 89.7443C195.038 92.6564 193.439 97.8226 191.882 102.815C190.391 107.602 188.857 112.547 189.225 117.435C189.611 122.515 191.908 127.302 194.128 131.93L194.142 131.959L194.15 131.976C196.372 136.607 198.642 141.339 197.718 144.159C196.793 146.983 192.131 149.473 187.615 151.877Z" fill="#C05643"/>
<path d="M194.854 124.817C193.105 121.164 191.291 117.396 191.079 114.537C190.876 111.914 192.073 108.07 193.23 104.346C195.382 97.4223 197.827 89.5789 194.178 82.3725C190.529 75.1662 182.759 72.4953 175.905 70.1321C172.218 68.8613 168.411 67.5513 166.417 65.8351C164.238 63.9718 162.274 60.2801 160.365 56.7079C157.021 50.4301 153.231 43.3185 145.863 40.9038C138.494 38.4892 131.23 41.979 124.82 45.0604C121.167 46.8101 117.399 48.6238 114.539 48.8357C111.931 49.0439 108.073 47.8422 104.349 46.6844C97.4252 44.533 89.5818 42.0879 82.3754 45.7371C75.1691 49.3863 72.5334 57.1673 70.1349 64.0098C68.8642 67.6969 67.5542 71.504 65.838 73.4974C63.9747 75.6772 60.283 77.6409 56.7108 79.5499C50.4353 82.8866 43.3213 86.6833 40.9067 94.0521C38.4921 101.421 41.9819 108.684 45.0633 115.095C46.813 118.748 48.6267 122.516 48.8386 125.375C49.0422 127.998 47.8451 131.842 46.6873 135.566C44.5358 142.49 42.0908 150.333 45.74 157.539C49.3892 164.746 57.1586 167.417 64.0127 169.78C67.6998 171.051 71.5068 172.361 73.5003 174.077C75.6731 175.938 77.6437 179.632 79.5527 183.204C82.8966 189.482 86.6862 196.593 94.055 199.008C101.424 201.423 108.687 197.933 115.098 194.852C118.751 193.102 122.519 191.288 125.378 191.076C128.001 190.873 131.845 192.07 135.569 193.227C142.493 195.379 150.336 197.824 157.542 194.175C164.749 190.526 167.42 182.756 169.783 175.902C171.053 172.215 172.364 168.408 174.08 166.415C175.941 164.242 179.635 162.271 183.207 160.362C189.482 157.025 196.596 153.229 199.011 145.86C201.426 138.491 197.936 131.227 194.854 124.817ZM177.615 149.877C177.606 149.882 177.596 149.887 177.587 149.892C173.058 152.309 168.374 154.808 165.056 158.674C161.867 162.397 160.177 167.291 158.545 172.032C156.856 176.95 155.083 182.098 152.17 183.567C149.258 185.036 144.092 183.436 139.1 181.879C134.313 180.388 129.368 178.854 124.479 179.222C119.4 179.609 114.613 181.905 109.984 184.125C109.975 184.13 109.965 184.134 109.956 184.139C109.95 184.142 109.945 184.144 109.939 184.147C105.307 186.369 100.575 188.639 97.7555 187.715C94.9323 186.79 92.4422 182.128 90.0375 177.612C87.6328 173.096 85.1143 168.378 81.2406 165.053C77.518 161.864 72.6238 160.174 67.8826 158.542C62.965 156.853 57.8168 155.08 56.348 152.168C54.8793 149.256 56.4783 144.089 58.036 139.097C59.5266 134.31 61.061 129.365 60.6931 124.476C60.3063 119.397 58.0098 114.61 55.7896 109.982C55.785 109.972 55.7804 109.963 55.7759 109.953C55.7732 109.947 55.7705 109.942 55.7678 109.936C53.5459 105.305 51.2758 100.573 52.1999 97.7527C53.125 94.9294 57.7864 92.4394 62.3027 90.0347C66.819 87.63 71.5366 85.1115 74.8616 81.2378C78.0511 77.5151 79.7408 72.621 81.3726 67.8798C83.0621 62.9622 84.8351 57.8139 87.7472 56.3452C90.6593 54.8764 95.8254 56.4755 100.818 58.0331C105.605 59.5237 110.55 61.0581 115.438 60.6903C120.518 60.3034 125.305 58.007 129.933 55.7868C129.943 55.7822 129.952 55.7776 129.962 55.773C129.967 55.7703 129.973 55.7677 129.979 55.765C134.61 53.5431 139.342 51.273 142.162 52.197C144.985 53.1221 147.475 57.7836 149.88 62.2999C152.285 66.8161 154.803 71.5338 158.677 74.8588C162.4 78.0483 167.294 79.738 172.035 81.3697C176.953 83.0593 182.101 84.8322 183.57 87.7443C185.038 90.6564 183.439 95.8226 181.882 100.815C180.391 105.602 178.857 110.547 179.225 115.435C179.611 120.515 181.908 125.302 184.128 129.93C184.133 129.94 184.137 129.949 184.142 129.959C184.144 129.965 184.147 129.97 184.15 129.976C186.372 134.607 188.642 139.339 187.718 142.159C186.793 144.983 182.131 147.473 177.615 149.877Z" fill="#F4BE18"/>
<path d="M177.615 149.877L177.587 149.892C173.058 152.309 168.374 154.808 165.056 158.674C161.867 162.397 160.177 167.291 158.545 172.032C156.856 176.95 155.083 182.098 152.17 183.567C149.258 185.036 144.092 183.436 139.1 181.879C134.313 180.388 129.368 178.854 124.479 179.222C119.4 179.609 114.613 181.905 109.984 184.125L109.956 184.139L109.939 184.147C105.307 186.369 100.575 188.639 97.7555 187.715C94.9323 186.79 92.4422 182.128 90.0375 177.612C87.6328 173.096 85.1143 168.378 81.2406 165.053C77.518 161.864 72.6238 160.174 67.8826 158.542C62.965 156.853 57.8168 155.08 56.348 152.168C54.8793 149.256 56.4783 144.089 58.036 139.097C59.5266 134.31 61.061 129.365 60.6931 124.476C60.3063 119.397 58.0098 114.61 55.7896 109.982L55.7759 109.953L55.7678 109.936C53.5459 105.305 51.2758 100.573 52.1999 97.7527C53.125 94.9294 57.7864 92.4394 62.3027 90.0347C66.819 87.63 71.5366 85.1115 74.8616 81.2378C78.0511 77.5151 79.7408 72.621 81.3726 67.8798C83.0621 62.9622 84.8351 57.8139 87.7472 56.3452C90.6593 54.8764 95.8254 56.4755 100.818 58.0331C105.605 59.5237 110.55 61.0581 115.438 60.6903C120.518 60.3034 125.305 58.007 129.933 55.7868L129.962 55.773L129.979 55.765C134.61 53.5431 139.342 51.273 142.162 52.197C144.985 53.1221 147.475 57.7836 149.88 62.2999C152.285 66.8161 154.803 71.5338 158.677 74.8588C162.4 78.0483 167.294 79.738 172.035 81.3697C176.953 83.0593 182.101 84.8322 183.57 87.7443C185.038 90.6564 183.439 95.8226 181.882 100.815C180.391 105.602 178.857 110.547 179.225 115.435C179.611 120.515 181.908 125.302 184.128 129.93L184.142 129.959L184.15 129.976C186.372 134.607 188.642 139.339 187.718 142.159C186.793 144.983 182.131 147.473 177.615 149.877Z" fill="#F4BE18"/>
</svg>
