<svg width="9" height="9" viewBox="0 0 9 9" fill="none" xmlns="http://www.w3.org/2000/svg">
<path d="M8.19766 3.51641C8.05039 3.3625 7.89805 3.20391 7.84062 3.06445C7.7875 2.93672 7.78438 2.725 7.78125 2.51992C7.77539 2.13867 7.76914 1.70664 7.46875 1.40625C7.16836 1.10586 6.73633 1.09961 6.35508 1.09375C6.15 1.09062 5.93828 1.0875 5.81055 1.03437C5.67109 0.976953 5.5125 0.824609 5.35859 0.677344C5.08867 0.418359 4.78281 0.125 4.375 0.125C3.96719 0.125 3.66133 0.418359 3.39141 0.677344C3.2375 0.824609 3.07891 0.976953 2.93945 1.03437C2.8125 1.0875 2.6 1.09062 2.39492 1.09375C2.01367 1.09961 1.58164 1.10586 1.28125 1.40625C0.980859 1.70664 0.976562 2.13867 0.96875 2.51992C0.965625 2.725 0.9625 2.93672 0.909375 3.06445C0.851953 3.20391 0.699609 3.3625 0.552344 3.51641C0.293359 3.78594 0 4.09219 0 4.5C0 4.90781 0.293359 5.21367 0.552344 5.48359C0.699609 5.6375 0.851953 5.79609 0.909375 5.93555C0.9625 6.06328 0.965625 6.275 0.96875 6.48008C0.974609 6.86133 0.980859 7.29336 1.28125 7.59375C1.58164 7.89414 2.01367 7.90039 2.39492 7.90625C2.6 7.90938 2.81172 7.9125 2.93945 7.96562C3.07852 8.02305 3.2375 8.17539 3.39141 8.32266C3.66133 8.58164 3.96719 8.875 4.375 8.875C4.78281 8.875 5.08867 8.58164 5.35859 8.32266C5.5125 8.17539 5.67109 8.02305 5.81055 7.96562C5.93828 7.9125 6.15 7.90938 6.35508 7.90625C6.73633 7.90039 7.16836 7.89414 7.46875 7.59375C7.76914 7.29336 7.77539 6.86133 7.78125 6.48008C7.78438 6.275 7.7875 6.06328 7.84062 5.93555C7.89805 5.79648 8.05039 5.6375 8.19766 5.48359C8.45664 5.21406 8.75 4.90781 8.75 4.5C8.75 4.09219 8.45664 3.78633 8.19766 3.51641ZM7.74648 5.05117L7.74533 5.05238C7.55858 5.24731 7.36541 5.44895 7.26289 5.69648C7.16445 5.93477 7.16016 6.20703 7.15625 6.4707C7.15234 6.74414 7.14805 7.03047 7.02656 7.15156C6.90508 7.27266 6.6207 7.27734 6.3457 7.28125C6.08203 7.28516 5.80977 7.28945 5.57148 7.38789C5.32395 7.49041 5.12231 7.68358 4.92738 7.87033L4.92617 7.87148C4.73086 8.05859 4.53125 8.25 4.375 8.25C4.21875 8.25 4.01797 8.05781 3.82383 7.87148C3.62969 7.68516 3.42656 7.49062 3.17852 7.38789C2.94023 7.28945 2.66797 7.28516 2.4043 7.28125C2.13086 7.27734 1.84453 7.27305 1.72344 7.15156C1.60234 7.03008 1.59766 6.7457 1.59375 6.4707C1.58984 6.20703 1.58555 5.93477 1.48711 5.69648C1.38459 5.44895 1.19142 5.24732 1.00467 5.05238L1.00352 5.05117C0.816406 4.85586 0.625 4.65625 0.625 4.5C0.625 4.34375 0.817187 4.14297 1.00352 3.94883C1.18984 3.75469 1.38438 3.55156 1.48711 3.30352C1.58555 3.06523 1.58984 2.79297 1.59375 2.5293C1.59766 2.25586 1.60195 1.96953 1.72344 1.84844C1.84492 1.72734 2.1293 1.72266 2.4043 1.71875C2.66797 1.71484 2.94023 1.71055 3.17852 1.61211C3.42605 1.50959 3.62768 1.31642 3.82262 1.12967L3.82383 1.12852C4.01914 0.941406 4.21875 0.75 4.375 0.75C4.53125 0.75 4.73203 0.942187 4.92617 1.12852C5.12031 1.31484 5.32344 1.50938 5.57148 1.61211C5.80977 1.71055 6.08203 1.71484 6.3457 1.71875C6.61914 1.72266 6.90547 1.72695 7.02656 1.84844C7.14766 1.96992 7.15234 2.2543 7.15625 2.5293C7.16016 2.79297 7.16445 3.06523 7.26289 3.30352C7.36541 3.55105 7.55858 3.75268 7.74533 3.94762L7.74648 3.94883C7.93359 4.14414 8.125 4.34375 8.125 4.5C8.125 4.65625 7.93281 4.85703 7.74648 5.05117Z" fill="#D55F4A"/>
<path d="M7.74648 5.05117L7.74533 5.05238C7.55858 5.24731 7.36541 5.44895 7.26289 5.69648C7.16445 5.93477 7.16016 6.20703 7.15625 6.4707C7.15234 6.74414 7.14805 7.03047 7.02656 7.15156C6.90508 7.27266 6.6207 7.27734 6.3457 7.28125C6.08203 7.28516 5.80977 7.28945 5.57148 7.38789C5.32395 7.49041 5.12231 7.68358 4.92738 7.87033L4.92617 7.87148C4.73086 8.05859 4.53125 8.25 4.375 8.25C4.21875 8.25 4.01797 8.05781 3.82383 7.87148C3.62969 7.68516 3.42656 7.49062 3.17852 7.38789C2.94023 7.28945 2.66797 7.28516 2.4043 7.28125C2.13086 7.27734 1.84453 7.27305 1.72344 7.15156C1.60234 7.03008 1.59766 6.7457 1.59375 6.4707C1.58984 6.20703 1.58555 5.93477 1.48711 5.69648C1.38459 5.44895 1.19142 5.24732 1.00467 5.05238L1.00352 5.05117C0.816406 4.85586 0.625 4.65625 0.625 4.5C0.625 4.34375 0.817187 4.14297 1.00352 3.94883C1.18984 3.75469 1.38438 3.55156 1.48711 3.30352C1.58555 3.06523 1.58984 2.79297 1.59375 2.5293C1.59766 2.25586 1.60195 1.96953 1.72344 1.84844C1.84492 1.72734 2.1293 1.72266 2.4043 1.71875C2.66797 1.71484 2.94023 1.71055 3.17852 1.61211C3.42605 1.50959 3.62768 1.31642 3.82262 1.12967L3.82383 1.12852C4.01914 0.941406 4.21875 0.75 4.375 0.75C4.53125 0.75 4.73203 0.942187 4.92617 1.12852C5.12031 1.31484 5.32344 1.50938 5.57148 1.61211C5.80977 1.71055 6.08203 1.71484 6.3457 1.71875C6.61914 1.72266 6.90547 1.72695 7.02656 1.84844C7.14766 1.96992 7.15234 2.2543 7.15625 2.5293C7.16016 2.79297 7.16445 3.06523 7.26289 3.30352C7.36541 3.55105 7.55858 3.75268 7.74533 3.94762L7.74648 3.94883C7.93359 4.14414 8.125 4.34375 8.125 4.5C8.125 4.65625 7.93281 4.85703 7.74648 5.05117Z" fill="#D55F4A"/>
</svg>
