<svg width="17" height="18" viewBox="0 0 17 18" fill="none" xmlns="http://www.w3.org/2000/svg">
<path d="M14.1887 12.2109C14.1393 12.2632 14.0807 12.3047 14.0162 12.333C13.9517 12.3613 13.8826 12.3759 13.8128 12.3759C13.743 12.3759 13.6739 12.3613 13.6094 12.333C13.5449 12.3047 13.4863 12.2632 13.4369 12.2109L8.5003 6.98318L3.56365 12.2109C3.46397 12.3165 3.32877 12.3758 3.1878 12.3758C3.04682 12.3758 2.91162 12.3165 2.81194 12.2109C2.71225 12.1054 2.65625 11.9622 2.65625 11.8129C2.65625 11.6637 2.71225 11.5205 2.81194 11.415L8.12444 5.78997C8.17377 5.73767 8.23237 5.69619 8.29686 5.66788C8.36135 5.63957 8.43048 5.625 8.5003 5.625C8.57011 5.625 8.63924 5.63957 8.70373 5.66788C8.76823 5.69619 8.82682 5.73767 8.87615 5.78997L14.1887 11.415C14.238 11.4672 14.2772 11.5293 14.304 11.5975C14.3307 11.6658 14.3445 11.739 14.3445 11.8129C14.3445 11.8869 14.3307 11.9601 14.304 12.0283C14.2772 12.0966 14.238 12.1587 14.1887 12.2109Z" fill="#1F4692"/>
</svg>
