<svg width="138" height="138" viewBox="0 0 138 138" fill="none" xmlns="http://www.w3.org/2000/svg">
<path d="M128.641 53.6559C126.344 51.255 123.967 48.7809 123.072 46.6055C122.243 44.6128 122.194 41.31 122.145 38.1108C122.054 32.1633 121.956 25.4236 117.27 20.7375C112.584 16.0514 105.845 15.9539 99.897 15.8625C96.6978 15.8138 93.395 15.765 91.4023 14.9362C89.2269 14.0405 86.7528 11.6639 84.3519 9.36656C80.1411 5.32641 75.3697 0.75 69.0078 0.75C62.6459 0.75 57.8745 5.32641 53.6638 9.36656C51.2628 11.6639 48.7887 14.0405 46.6133 14.9362C44.6328 15.765 41.3178 15.8138 38.1186 15.8625C32.1711 15.9539 25.4314 16.0514 20.7453 20.7375C16.0592 25.4236 15.9922 32.1633 15.8703 38.1108C15.8216 41.31 15.7728 44.6128 14.9441 46.6055C14.0483 48.7809 11.6717 51.255 9.37437 53.6559C5.33422 57.8606 0.757812 62.6381 0.757812 69C0.757812 75.3619 5.33422 80.1333 9.37437 84.3441C11.6717 86.745 14.0483 89.2191 14.9441 91.3945C15.7728 93.3872 15.8216 96.69 15.8703 99.8892C15.9617 105.837 16.0592 112.576 20.7453 117.263C25.4314 121.949 32.1711 122.046 38.1186 122.138C41.3178 122.186 44.6206 122.235 46.6133 123.064C48.7827 123.96 51.2628 126.336 53.6638 128.633C57.8745 132.674 62.6459 137.25 69.0078 137.25C75.3697 137.25 80.1411 132.674 84.3519 128.633C86.7528 126.336 89.2269 123.96 91.4023 123.064C93.395 122.235 96.6978 122.186 99.897 122.138C105.845 122.046 112.584 121.949 117.27 117.263C121.956 112.576 122.054 105.837 122.145 99.8892C122.194 96.69 122.243 93.3872 123.072 91.3945C123.967 89.2252 126.344 86.745 128.641 84.3441C132.681 80.1394 137.258 75.3619 137.258 69C137.258 62.6381 132.681 57.8667 128.641 53.6559ZM121.603 77.5983C121.597 77.6045 121.591 77.6108 121.585 77.6171C118.672 80.6581 115.658 83.8036 114.059 87.6652C112.523 91.3823 112.456 95.6297 112.395 99.743C112.334 104.009 112.267 108.475 110.372 110.364C108.477 112.253 104.041 112.327 99.7508 112.388C95.6375 112.448 91.3902 112.515 87.673 114.051C83.8114 115.65 80.6659 118.664 77.6249 121.577C77.6186 121.583 77.6124 121.589 77.6061 121.595C77.6024 121.599 77.5988 121.602 77.5951 121.606C74.5517 124.521 71.4424 127.5 69.0078 127.5C66.5703 127.5 63.4381 124.502 60.4095 121.595C57.3809 118.688 54.2122 115.654 50.3427 114.051C46.6255 112.515 42.3781 112.448 38.2648 112.388C33.9992 112.327 29.5325 112.26 27.6434 110.364C25.7544 108.469 25.6813 104.033 25.6203 99.743C25.5594 95.6297 25.4923 91.3823 23.9567 87.6652C22.3574 83.8036 19.344 80.6581 16.4307 77.6171C16.4247 77.6108 16.4187 77.6046 16.4127 77.5983C16.4091 77.5946 16.4056 77.591 16.4021 77.5873C13.4866 74.5439 10.5078 71.4346 10.5078 69C10.5078 66.5625 13.5059 63.4303 16.4127 60.4017C19.3194 57.3731 22.3541 54.2044 23.9567 50.3348C25.4923 46.6177 25.5594 42.3703 25.6203 38.257C25.6813 33.9914 25.7483 29.5247 27.6434 27.6356C29.5386 25.7466 33.9748 25.6734 38.2648 25.6125C42.3781 25.5516 46.6255 25.4845 50.3427 23.9489C54.2042 22.3496 57.3497 19.3362 60.3907 16.4229C60.397 16.4169 60.4033 16.4109 60.4095 16.4048C60.4132 16.4013 60.4169 16.3978 60.4205 16.3943C63.4639 13.4788 66.5732 10.5 69.0078 10.5C71.4453 10.5 74.5775 13.4981 77.6061 16.4048C80.6347 19.3116 83.8034 22.3463 87.673 23.9489C91.3902 25.4845 95.6375 25.5516 99.7508 25.6125C104.016 25.6734 108.483 25.7405 110.372 27.6356C112.261 29.5308 112.334 33.967 112.395 38.257C112.456 42.3703 112.523 46.6177 114.059 50.3348C115.658 54.1964 118.672 57.3419 121.585 60.3829C121.591 60.3892 121.597 60.3955 121.603 60.4017C121.606 60.4054 121.61 60.409 121.614 60.4127C124.529 63.4561 127.508 66.5654 127.508 69C127.508 71.4375 124.51 74.5697 121.603 77.5983Z" fill="#D55F4A"/>
<path d="M121.603 77.5983L121.585 77.6171C118.672 80.6581 115.658 83.8036 114.059 87.6652C112.523 91.3823 112.456 95.6297 112.395 99.743C112.334 104.009 112.267 108.475 110.372 110.364C108.477 112.253 104.041 112.327 99.7508 112.388C95.6375 112.448 91.3902 112.515 87.673 114.051C83.8114 115.65 80.6659 118.664 77.6249 121.577L77.6061 121.595L77.5951 121.606C74.5517 124.521 71.4424 127.5 69.0078 127.5C66.5703 127.5 63.4381 124.502 60.4095 121.595C57.3809 118.688 54.2122 115.654 50.3427 114.051C46.6255 112.515 42.3781 112.448 38.2648 112.388C33.9992 112.327 29.5325 112.26 27.6434 110.364C25.7544 108.469 25.6813 104.033 25.6203 99.743C25.5594 95.6297 25.4923 91.3823 23.9567 87.6652C22.3574 83.8036 19.344 80.6581 16.4307 77.6171L16.4127 77.5983L16.4021 77.5873C13.4866 74.5439 10.5078 71.4346 10.5078 69C10.5078 66.5625 13.5059 63.4303 16.4127 60.4017C19.3194 57.3731 22.3541 54.2044 23.9567 50.3348C25.4923 46.6177 25.5594 42.3703 25.6203 38.257C25.6813 33.9914 25.7483 29.5247 27.6434 27.6356C29.5386 25.7466 33.9748 25.6734 38.2648 25.6125C42.3781 25.5516 46.6255 25.4845 50.3427 23.9489C54.2042 22.3496 57.3497 19.3362 60.3907 16.4229L60.4095 16.4048L60.4205 16.3943C63.4639 13.4788 66.5732 10.5 69.0078 10.5C71.4453 10.5 74.5775 13.4981 77.6061 16.4048C80.6347 19.3116 83.8034 22.3463 87.673 23.9489C91.3902 25.4845 95.6375 25.5516 99.7508 25.6125C104.016 25.6734 108.483 25.7405 110.372 27.6356C112.261 29.5308 112.334 33.967 112.395 38.257C112.456 42.3703 112.523 46.6177 114.059 50.3348C115.658 54.1964 118.672 57.3419 121.585 60.3829L121.603 60.4017L121.614 60.4127C124.529 63.4561 127.508 66.5654 127.508 69C127.508 71.4375 124.51 74.5697 121.603 77.5983Z" fill="#D55F4A"/>
</svg>
